<svg xmlns="http://www.w3.org/2000/svg" viewBox="0 0 82 82"><path d="M0,43.56V38.44a3.2,3.2,0,0,0,.14-.67A38.68,38.68,0,0,1,4.71,21.93c6.34-11.59,16-18.72,29-21.26C35.28.36,36.87.2,38.44,0h5.12a4,4,0,0,0,.57.14A39.28,39.28,0,0,1,63.57,6.8,40.39,40.39,0,0,1,81.32,33.72c.29,1.56.46,3.15.68,4.72v5.12a4,4,0,0,0-.14.57,39,39,0,0,1-5.58,17.71,40.43,40.43,0,0,1-28,19.48c-1.55.29-3.14.46-4.7.68H38.44a4,4,0,0,0-.57-.14,39.57,39.57,0,0,1-19.52-6.71A40.3,40.3,0,0,1,.67,48.28C.38,46.71.22,45.13,0,43.56Zm40.93,33A35.53,35.53,0,1,0,5.47,41,35.54,35.54,0,0,0,40.93,76.53ZM24.62,62.61c-1.42-.85-2.81-1.67-4.19-2.51-.14-.08-.27-.19-.48-.34,4.92-7.45,11.7-11.62,20.66-11.86A24.29,24.29,0,0,1,62.08,59.84c-1.52.93-3,1.83-4.6,2.77-3.92-5.93-9.34-9.26-16.46-9.24S28.51,56.7,24.62,62.61ZM46.47,32.73a5.47,5.47,0,1,1,5.43,5.54A5.45,5.45,0,0,1,46.47,32.73Zm-16.35-5.4a5.47,5.47,0,1,1-5.52,5.44A5.48,5.48,0,0,1,30.12,27.33Z" style="fill:#bd2739"/></svg>