<svg xmlns="http://www.w3.org/2000/svg" viewBox="0 0 82 82">
    <path d="M0,43.56V38.44a3.2,3.2,0,0,0,.14-.67A38.68,38.68,0,0,1,4.71,21.93c6.34-11.59,16-18.72,29-21.26C35.28.36,36.87.2,38.44,0h5.12a4,4,0,0,0,.57.14A39.28,39.28,0,0,1,63.57,6.8,40.39,40.39,0,0,1,81.32,33.72c.29,1.56.46,3.15.68,4.72v5.12a4,4,0,0,0-.14.57,39,39,0,0,1-5.58,17.71,40.43,40.43,0,0,1-28,19.48c-1.55.29-3.14.46-4.7.68H38.44a4,4,0,0,0-.57-.14,39.57,39.57,0,0,1-19.52-6.71A40.3,40.3,0,0,1,.67,48.28C.38,46.71.22,45.13,0,43.56Zm40.93,33A35.53,35.53,0,1,0,5.47,41,35.54,35.54,0,0,0,40.93,76.53ZM57.72,51,62,53.53c.14.08.28.19.49.34-5,7.55-11.92,11.77-21,12A24.73,24.73,0,0,1,19.57,53.79L24.25,51c4,6,9.51,9.38,16.77,9.36S53.75,57,57.72,51ZM46.57,32.63a5.57,5.57,0,1,1,5.53,5.6A5.54,5.54,0,0,1,46.57,32.63ZM29.92,27.16a5.54,5.54,0,1,1-5.62,5.5A5.56,5.56,0,0,1,29.92,27.16Z"
          style="fill:#0b507f"/>
</svg>